<?xml version="1.0" encoding="UTF-8"?>
<svg width="24px" height="23px" viewBox="0 0 24 23" version="1.1" xmlns="http://www.w3.org/2000/svg" xmlns:xlink="http://www.w3.org/1999/xlink">
    <!-- Generator: Sketch 52.5 (67469) - http://www.bohemiancoding.com/sketch -->
    <title>edit</title>
    <desc>Created with Sketch.</desc>
    <g id="Page-1" stroke="none" stroke-width="1" fill="none" fill-rule="evenodd">
        <g id="Exams-list" transform="translate(-1359.000000, -466.000000)" fill="#303030" fill-rule="nonzero">
            <g id="Group-7" transform="translate(1289.000000, 457.000000)">
                <g id="Group-4" transform="translate(18.000000, 4.000000)">
                    <g id="edit" transform="translate(52.000000, 5.000000)">
                        <path d="M23.1435854,21 L0.836023789,21 C0.367034834,21 0,21.4634146 0,22 C0,22.5365854 0.387425658,23 0.836023789,23 L23.1639762,23 C23.6329652,23 24,22.5365854 24,22 C24,21.4634146 23.6125743,21 23.1435854,21 Z" id="Shape"></path>
                        <path d="M0.0200845666,13.5 L0,17.2025316 C0,17.4113924 0.0803382664,17.6202532 0.241014799,17.7721519 C0.401691332,17.9240506 0.602536998,18 0.82346723,18 L4.71987315,17.9810127 C4.94080338,17.9810127 5.14164905,17.9050633 5.30232558,17.7531646 L18.7589852,5.03164557 C19.0803383,4.7278481 19.0803383,4.23417722 18.7589852,3.91139241 L14.9027484,0.227848101 C14.5813953,-0.0759493671 14.0591966,-0.0759493671 13.717759,0.227848101 L11.0264271,2.79113924 L0.261099366,12.9493671 C0.1205074,13.1012658 0.0200845666,13.2911392 0.0200845666,13.5 Z M14.320296,1.89873418 L17.0317125,4.46202532 L15.5052854,5.90506329 L12.7938689,3.34177215 L14.320296,1.89873418 Z M1.68710359,13.8417722 L11.6088795,4.46202532 L14.320296,7.02531646 L4.39852008,16.3860759 L1.66701903,16.4050633 L1.68710359,13.8417722 Z" id="Shape"></path>
                    </g>
                </g>
            </g>
        </g>
    </g>
</svg>