<?xml version="1.0" encoding="UTF-8"?>
<svg width="34px" height="46px" viewBox="0 0 34 46" version="1.1" xmlns="http://www.w3.org/2000/svg" xmlns:xlink="http://www.w3.org/1999/xlink">
    <!-- Generator: Sketch 52.5 (67469) - http://www.bohemiancoding.com/sketch -->
    <title>rubbish-bin</title>
    <desc>Created with Sketch.</desc>
    <g id="Page-1" stroke="none" stroke-width="1" fill="none" fill-rule="evenodd">
        <g id="Upload-Exam" transform="translate(-1278.000000, -1226.000000)" fill="#FFFFFF" fill-rule="nonzero">
            <g id="rubbish-bin" transform="translate(1278.000000, 1226.000000)">
                <path d="M3.52629234,43.76883 C3.57763279,45.0158568 4.58662284,46 5.81367056,46 L27.1863294,46 C28.4133772,46 29.4223672,45.0158568 29.4737077,43.76883 L31,11 L2,11 L3.52629234,43.76883 Z M21.334744,19.1392004 C21.334744,18.6170574 21.7510359,18.1935667 22.2646631,18.1935667 L23.7519768,18.1935667 C24.2652698,18.1935667 24.6818959,18.6169442 24.6818959,19.1392004 L24.6818959,37.8607996 C24.6818959,38.3830558 24.2656039,38.8064333 23.7519768,38.8064333 L22.2646631,38.8064333 C21.7512586,38.8064333 21.334744,38.3832824 21.334744,37.8607996 L21.334744,19.1392004 Z M14.8265354,19.1392004 C14.8265354,18.6170574 15.2428274,18.1935667 15.7563432,18.1935667 L17.2436568,18.1935667 C17.7569499,18.1935667 18.1734646,18.6169442 18.1734646,19.1392004 L18.1734646,37.8607996 C18.1734646,38.3830558 17.757284,38.8064333 17.2436568,38.8064333 L15.7563432,38.8064333 C15.2429387,38.8064333 14.8265354,38.3832824 14.8265354,37.8607996 L14.8265354,19.1392004 Z M8.31810414,19.1392004 C8.31810414,18.6170574 8.73439606,18.1935667 9.24791186,18.1935667 L10.7353369,18.1935667 C11.2487414,18.1935667 11.6651446,18.6169442 11.6651446,19.1392004 L11.6651446,37.8607996 C11.6651446,38.3830558 11.2488527,38.8064333 10.7353369,38.8064333 L9.24791186,38.8064333 C8.73450743,38.8064333 8.31810414,38.3832824 8.31810414,37.8607996 L8.31810414,19.1392004 Z" id="Shape"></path>
                <path d="M32.5593741,2.2605613 L22.6721016,2.2605613 L22.6721016,0.462468108 C22.6721016,0.20711696 22.4569011,0 22.1913346,0 L11.8086654,0 C11.5432106,0 11.3280101,0.20711696 11.3280101,0.462468108 L11.3280101,2.26045387 L1.44062591,2.26045387 C0.644931368,2.26045387 0,2.88094535 0,3.64635424 L0,8 L34,8 L34,3.64646166 C34,2.88105277 33.3550686,2.2605613 32.5593741,2.2605613 Z" id="Shape"></path>
            </g>
        </g>
    </g>
</svg>